<svg version="1.1" xmlns="http://www.w3.org/2000/svg" width="256px" height="256px" transform="rotate(0) scale(1, 1)">
<path d="M0 0 C5.55713036 2.93584246 7.85246664 7.41903756 10.08984375 13.203125 C12.46834157 23.12544208 12.25333682 34.31838321 9 44 C9.78503906 43.93039063 10.57007813 43.86078125 11.37890625 43.7890625 C21.03649485 43.29137082 21.03649485 43.29137082 25.0625 46.5625 C31.00496588 52.8238299 31.40935398 58.53765764 31.24609375 66.90234375 C31.03947123 69.50316376 30.68723166 71.60457022 29.875 74.0625 C28.66543317 76.86643283 28.66543317 76.86643283 29.93359375 78.75390625 C31.40934327 81.8621699 31.22800373 84.45059404 31.1875 87.875 C31.17783203 89.66550781 31.17783203 89.66550781 31.16796875 91.4921875 C31 95 31 95 30.42578125 98.0078125 C29.92395936 101.53437733 30.37181793 104.5100996 31 108 C32.30453125 107.95359375 33.6090625 107.9071875 34.953125 107.859375 C46.21569035 107.58123373 55.05159769 108.40216781 65.43359375 113.1015625 C78.48905762 117.67196842 94.42727567 111.72920191 107.19189453 108.55078125 C109.87840677 108.02384927 112.27150259 107.89508181 115 108 C115.33 110.97 115.66 113.94 116 117 C72.09427208 127.63891327 72.09427208 127.63891327 53.35546875 119.21484375 C49.87220295 117.95373122 48.43433007 117.77345355 45 119 C43.64377755 119.96873032 42.30582947 120.96434215 41 122 C40.34 122 39.68 122 39 122 C38.62875 122.7734375 38.62875 122.7734375 38.25 123.5625 C36.9241035 126.14799817 35.46730775 128.63782041 33.97265625 131.12890625 C32.79221375 133.23432716 32.79221375 133.23432716 32 136.75 C29.72422951 140.44812705 29.30960401 140.58633647 25.3125 141.625 C23.63135011 141.95790097 21.94918861 142.28671604 20.26171875 142.5859375 C16.36946564 143.29850888 12.50078568 144.12577131 8.62768555 144.93505859 C6.42498312 145.39347505 4.22070306 145.84437787 2.01489258 146.28759766 C0.99548584 146.49433105 -0.0239209 146.70106445 -1.07421875 146.9140625 C-1.99807373 147.0992041 -2.92192871 147.2843457 -3.8737793 147.47509766 C-5.97073191 147.79839171 -5.97073191 147.79839171 -7 149 C-7.04063832 150.66617115 -7.042721 152.33388095 -7 154 C-1.41299612 155.30641384 3.67666305 154.76753088 9.3125 154.1875 C10.28944824 154.09275391 11.26639648 153.99800781 12.27294922 153.90039062 C18.74625683 153.26162608 25.21103677 152.553528 31.6652832 151.74414062 C35.4064974 151.27975682 39.13935052 150.8953632 42.8984375 150.60546875 C52.20856692 149.85897767 60.75107571 148.61574131 69.62109375 145.58862305 C75.61419438 143.57485223 75.61419438 143.57485223 79 145 C79.99 148.465 79.99 148.465 81 152 C67.89303276 158.19123075 54.09699614 160.24777809 39.7421875 160.63525391 C34.22582734 160.80814569 29.08053594 161.4194749 23.6875 162.5625 C16.56943173 164.01044893 9.56976211 164.36275036 2.3125 164.4375 C1.28406982 164.45949463 0.25563965 164.48148926 -0.80395508 164.50415039 C-6.66682594 164.48818054 -10.4867174 164.14872019 -15 160 C-17.02907973 157.08539704 -17.32083348 154.57790743 -17.375 151.0625 C-17.40335937 150.22847656 -17.43171875 149.39445313 -17.4609375 148.53515625 C-16.85552479 145.20538637 -15.15050277 143.55455438 -13 141 C-14.23524414 141.06396973 -15.47048828 141.12793945 -16.74316406 141.19384766 C-44.9643587 142.47016234 -66.78982111 140.43251273 -90.80522156 124.71858215 C-95.49467036 121.7815109 -98.63754787 121.54872034 -104 122 C-106.14780077 122.89757556 -106.14780077 122.89757556 -107 125 C-107.60858875 129.48436038 -107.60858875 129.48436038 -105.9140625 133.484375 C-103.1599828 135.66515648 -100.13368409 137.19835157 -97 138.75 C-96.29794434 139.09780518 -95.59588867 139.44561035 -94.87255859 139.80395508 C-76.78330135 148.54676514 -57.64113748 153.91820486 -37.91137695 157.33398438 C-30.79477823 158.65262701 -24.23858252 160.83700393 -17.56665039 163.62646484 C-8.77531807 167.20939965 -0.51051597 167.25650087 8.8125 166.1875 C10.66666414 165.99476734 12.52083088 165.8020597 14.375 165.609375 C16.25004144 165.40663292 18.12504222 165.20351433 20 165 C23.43640897 164.63437018 26.87367959 164.27971509 30.3125 163.9375 C31.17883057 163.85121338 32.04516113 163.76492676 32.93774414 163.67602539 C39.3755239 163.07036002 45.78840124 162.81268579 52.25 162.625 C62.34657868 162.30759259 72.29462764 161.29384834 82.3125 160.0625 C83.01419312 159.97695862 83.71588623 159.89141724 84.43884277 159.80328369 C91.93097708 158.88133384 99.37720093 157.84323619 106.78515625 156.37719727 C109.54469306 155.90723647 112.20800227 155.8490812 115 156 C115.33 158.97 115.66 161.94 116 165 C93.12156022 168.86609401 70.7855168 171.91673198 47.55834961 172.53393555 C40.06293764 172.77224808 32.78630529 173.44159842 25.375 174.5625 C16.96079351 175.80604836 8.69435448 176.32617931 0.1875 176.375 C-0.88000488 176.38861572 -1.94750977 176.40223145 -3.04736328 176.41625977 C-12.2047853 176.36356453 -19.63172407 174.00638792 -28.0625 170.625 C-34.51802081 168.26866519 -40.9358467 166.98094709 -47.6875 165.75 C-64.5887399 162.58413542 -81.23007911 157.81752318 -96.39355469 149.59594727 C-105.66404976 144.58644126 -111.58132305 143.06728524 -121.875 146.06713867 C-123.30184519 146.52134896 -124.72540237 146.9860938 -126.14453125 147.46386719 C-128.47341121 148.13679092 -130.59202132 148.20066489 -133 148 C-133.33 145.03 -133.66 142.06 -134 139 C-125.585 137.02 -125.585 137.02 -117 135 C-117.0825 133.164375 -117.165 131.32875 -117.25 129.4375 C-117.22929555 123.57814167 -116.70352667 120.55818667 -113 116 C-107.89142984 111.84928674 -103.70722397 111.5084163 -97.22314453 111.5925293 C-90.80404616 112.40403325 -85.65988439 115.99273527 -80.20117188 119.265625 C-74.0153117 122.70957285 -70.23637481 123.45972467 -63.31469727 121.72412109 C-61.53719282 121.16805336 -59.76687862 120.58895954 -58 120 C-52.5336081 119.35144503 -49.94122744 119.64738603 -45.5 123 C-44.31806919 123.98191175 -43.14576826 124.97612198 -42 126 C-40.62036318 123.28104472 -40.62036318 123.28104472 -40 120 C-41.73787565 117.26513223 -41.73787565 117.26513223 -44 115 C-45.78194209 109.65417374 -46.15538236 103.05651152 -44.140625 97.7265625 C-43.0625 95.875 -43.0625 95.875 -41 93 C-40.67 92.34 -40.34 91.68 -40 91 C-40.33 90.01 -40.66 89.02 -41 88 C-41.09504628 85.85586777 -41.12987226 83.7087323 -41.125 81.5625 C-41.12886719 79.86287109 -41.12886719 79.86287109 -41.1328125 78.12890625 C-41 75 -41 75 -40.43359375 72.85546875 C-39.88823012 70.52170548 -40.28843095 69.04083194 -40.9375 66.75 C-41.288125 65.5125 -41.63875 64.275 -42 63 C-42.32226562 63.85722656 -42.64453125 64.71445313 -42.9765625 65.59765625 C-45.87319502 71.6860758 -48.41005124 75.67289303 -54.83203125 78.28125 C-60.4647745 80.20334018 -66.21187277 81.6325751 -72 83 C-73.65684508 83.42084118 -75.31313686 83.84386935 -76.96875 84.26953125 C-86.24192542 86.59250256 -95.19658531 88.16160992 -104.77734375 88.09765625 C-105.58869278 88.0962413 -106.40004181 88.09482635 -107.23597717 88.09336853 C-109.80319047 88.08781357 -112.37031348 88.07526967 -114.9375 88.0625 C-116.68814977 88.05747917 -118.43880093 88.05291729 -120.18945312 88.04882812 C-124.4596697 88.03785893 -128.72981959 88.02062582 -133 88 C-133 85.36 -133 82.72 -133 80 C-131.52128418 79.94054199 -131.52128418 79.94054199 -130.01269531 79.87988281 C-104.41978973 79.07312066 -104.41978973 79.07312066 -79.29492188 74.58740234 C-76.75668116 73.93772073 -74.20426646 73.40354902 -71.640625 72.86328125 C-61.87222694 70.85768613 -61.87222694 70.85768613 -54.1796875 65.00390625 C-52.19663268 61.74279899 -50.57516634 58.47300826 -49 55 C-45.6088014 49.62559412 -41.80511032 44.83958059 -36 42 C-34.3556816 41.72011602 -32.70970809 41.44984248 -31.0625 41.1875 C-26.60772952 39.97503953 -24.79568262 37.86102682 -22.50097656 33.88745117 C-18.47482504 26.03201917 -17.16727351 19.31270078 -17.42578125 10.5234375 C-16.85504369 5.8004533 -15.32925089 4.32425951 -12 1 C-8.25199458 -0.87400271 -4.08199017 -0.51575222 0 0 Z M-7 9 C-9.44089535 12.66134302 -9.19564651 14.51766173 -9.25 18.875 C-9.52663201 26.96673406 -12.08015623 32.89153715 -16 40 C-14.44219668 40.67756882 -12.87849904 41.34159457 -11.3125 42 C-10.44238281 42.37125 -9.57226562 42.7425 -8.67578125 43.125 C-5.9427998 44.01870488 -3.85299066 44.16449676 -1 44 C2.73829308 35.27731614 4.02778514 24.86508687 0.875 15.74609375 C-0.30362197 13.39219816 -1.53104872 11.1824419 -3 9 C-4.32 9 -5.64 9 -7 9 Z M-30.97265625 54.6328125 C-32.61294903 58.41234644 -32.82577604 61.97434181 -32 66 C-31.34 66.99 -30.68 67.98 -30 69 C-29.66042437 73.07490752 -29.68667514 74.53001271 -32 78 C-32.31478577 79.95214625 -32.31478577 79.95214625 -32.25 82 C-32.25773437 83.0209375 -32.25773437 83.0209375 -32.265625 84.0625 C-32.09917603 86.32416007 -32.09917603 86.32416007 -30 89 C-29.5 91.75 -29.5 91.75 -30 95 C-31.34375 96.6640625 -31.34375 96.6640625 -33 98.375 C-35.32959401 100.89318019 -36.50929487 102.53652066 -36.75 106 C-36.45230896 110.28344332 -34.22677716 112.35771605 -31.34375 115.3359375 C-30 117 -30 117 -29.5 120.25 C-30 123 -30 123 -32 126 C-32.16713569 128.62531524 -32.16713569 128.62531524 -32 131 C-20.19142274 132.15129739 -11.23799108 132.53488793 -1 126 C-4.40931897 124.86356034 -5.00335456 125.13252236 -8.1875 126.4375 C-9.445625 126.953125 -10.70375 127.46875 -12 128 C-12.66 125.36 -13.32 122.72 -14 120 C-8.2744028 117.64841544 -3.28918385 116.80348272 2.875 116.625 C10.11690826 116.38892466 15.65460989 114.64322186 22 111 C21.505 107.535 21.505 107.535 21 104 C4.10364514 103.44146895 4.10364514 103.44146895 -12 108 C-12.66 105.36 -13.32 102.72 -14 100 C-5.48404279 96.61164031 2.30021787 96.54481655 11.37695312 96.47265625 C12.45783203 96.45074219 13.53871094 96.42882812 14.65234375 96.40625 C15.63195068 96.39916016 16.61155762 96.39207031 17.62084961 96.38476562 C18.40596924 96.25779297 19.19108887 96.13082031 20 96 C22.15942819 92.76085771 22.27232978 91.75140267 22.25 88 C22.25515625 87.13375 22.2603125 86.2675 22.265625 85.375 C22.15414552 82.734205 22.15414552 82.734205 20 80 C17.42641425 79.71742211 15.13166358 79.62330772 12.5625 79.6875 C11.48585083 79.70224365 11.48585083 79.70224365 10.38745117 79.71728516 C2.54974349 79.9047524 -4.74660864 80.93373509 -12 84 C-12.66 81.36 -13.32 78.72 -14 76 C-6.55371386 73.05465034 0.09549215 72.47340322 8.0625 72.3125 C9.21427734 72.27833984 10.36605469 72.24417969 11.55273438 72.20898438 C14.3683921 72.12720179 17.18376571 72.05782625 20 72 C22.32956982 67.56045573 22.71443943 63.97525291 22 59 C19.58350288 54.25604133 19.58350288 54.25604133 15 52 C12.9945336 51.87293828 10.9855603 51.79826851 8.9765625 51.75390625 C7.19765625 51.70459961 7.19765625 51.70459961 5.3828125 51.65429688 C2.88550461 51.59329195 0.38810376 51.5359766 -2.109375 51.48242188 C-3.29789063 51.44826172 -4.48640625 51.41410156 -5.7109375 51.37890625 C-6.79681152 51.3538501 -7.88268555 51.32879395 -9.00146484 51.30297852 C-12.03549479 50.99641353 -14.23320643 50.23866989 -17 49 C-23.66536271 47.58578391 -27.26468635 48.86029426 -30.97265625 54.6328125 Z M1 135 C1 135.33 1 135.66 1 136 C4.35163989 135.78496116 7.66809525 135.42082651 11 135 C12.546875 134.82791016 12.546875 134.82791016 14.125 134.65234375 C18.84719612 133.85547315 21.95583201 133.31024941 25.0234375 129.4609375 C26.52337395 126.68788425 27.78335512 123.90594317 29 121 C29.66 120.01 30.32 119.02 31 118 C19.71489901 118 8.67650366 127.40716396 1 135 Z M-56 129 C-56.66 129.66 -57.32 130.32 -58 131 C-55.69 131.33 -53.38 131.66 -51 132 C-52.37485532 130.45833358 -52.37485532 130.45833358 -54 129 C-54.66 129 -55.32 129 -56 129 Z " fill="#ffffff" transform="translate(137,40)"/>
</svg>